<svg width="306" height="206" viewBox="0 0 306 206" fill="none" xmlns="http://www.w3.org/2000/svg">
<g clip-path="url(#clip0_102_39)">
<path opacity="0.18" d="M17.5119 145.81C12.4724 142.33 8.31552 137.937 5.31507 132.918C2.31462 127.9 0.53875 122.371 0.104463 116.695C-0.329824 111.019 0.58733 105.325 2.7955 99.9885C5.00367 94.6521 8.45272 89.7942 12.9154 85.7349C19.588 79.7228 28.2129 75.8579 35.6139 70.6527C48.4128 61.7062 57.8899 48.7842 72.1675 41.9524C89.359 33.7216 110.193 35.8948 129.074 40.0004C147.955 44.106 166.924 49.9879 186.287 48.5044C197.818 47.613 208.919 44.1255 220.342 42.4273C231.764 40.7291 244.293 41.0349 253.85 46.9819C267.764 55.6942 271.071 73.3009 282.486 84.6548C288.015 90.1593 295.357 94.0763 300.253 100.062C308.127 109.685 307.923 124.136 299.779 133.577C289.348 145.647 270.524 147.56 255.344 154.197C246.894 157.892 239.318 163.221 230.576 166.318C212.205 172.825 191.539 168.589 172.701 163.332C153.863 158.075 134.457 151.75 114.957 154.327C96.7455 156.747 80.3335 166.787 61.9692 168.309C53.4464 169.019 43.7143 167.659 38.5059 161.087C32.9041 154.041 25.0951 151.015 17.5119 145.81Z" fill="#E01A76"/>
<path d="M22.4508 108.521C27.397 103.608 27.397 103.608 33.0061 97.7134L56.8774 72.7608C62.1586 67.3539 64.2493 64.9009 67.0757 61.0491H89.6576C89.012 66.4645 88.7177 71.9087 88.7762 77.3545V109.308H91.9668C95.6254 109.277 99.2768 109.014 102.894 108.521V126.401C99.3167 126.008 95.7162 125.813 92.1125 125.815H88.8126V130.728C88.7073 134.77 89.0022 138.814 89.6941 142.81H66.9956C67.6201 138.742 67.9147 134.639 67.877 130.532V125.718H36.7503C29.5969 125.718 26.552 125.815 22.4508 126.108V108.521ZM67.9862 98.1103C67.9862 93.6859 68.2048 88.2854 68.6491 83.9586C66.4638 86.7109 64.7956 88.6758 61.8308 92.0137L45.7685 109.503H67.9862V98.1103Z" fill="#E01A76"/>
<path d="M22.4508 108.521C27.397 103.608 27.397 103.608 33.0061 97.7134L56.8774 72.7608C62.1586 67.3539 64.2493 64.9009 67.0757 61.0491H89.6576C89.012 66.4645 88.7177 71.9087 88.7762 77.3545V109.308H91.9668C95.6254 109.277 99.2768 109.014 102.894 108.521V126.401C99.3167 126.008 95.7162 125.813 92.1125 125.815H88.8126V130.728C88.7073 134.77 89.0022 138.814 89.6941 142.81H66.9956C67.6201 138.742 67.9147 134.639 67.877 130.532V125.718H36.7503C29.5969 125.718 26.552 125.815 22.4508 126.108V108.521ZM67.9862 98.1103C67.9862 93.6859 68.2048 88.2854 68.6491 83.9586C66.4638 86.7109 64.7956 88.6758 61.8308 92.0137L45.7685 109.503H67.9862V98.1103Z" fill="url(#paint0_linear_102_39)"/>
<path d="M144.86 83.8806C147.045 84.206 149.077 85.4032 151.27 85.8326C153.186 86.223 155.204 86.0213 157.098 86.6199C160.631 87.739 162.925 91.5453 163.428 95.3647C163.93 99.184 163.034 103.049 162.015 106.758C159.334 116.53 155.692 126.29 149.136 133.701C148.677 134.215 148.123 134.755 147.446 134.742C146.975 134.684 146.536 134.501 146.185 134.215C144.809 133.373 143.55 132.388 142.434 131.281C140.686 129.4 139.673 126.921 138.792 124.462C136.308 117.539 131.565 113.154 130.684 105.814C129.722 98.1169 134.435 82.3451 144.86 83.8806Z" fill="#E01A76"/>
<path d="M137.808 88.8124C136.878 88.6624 135.918 88.8172 135.106 89.2483C134.253 89.7166 133.517 90.3357 132.942 91.0674C132.367 91.7992 131.965 92.6282 131.762 93.5036C131.368 95.2578 131.296 97.0577 131.551 98.8325C132.049 104.041 133.18 109.185 134.923 114.175C135.433 115.619 133.976 119.048 135.033 120.232C135.892 121.195 135.463 126.98 136.584 127.695C139.695 129.699 146.156 128.593 149.267 130.597C153.295 133.2 153.025 126.329 152.384 123.499C151.656 120.343 146.185 120.896 141.997 110.238C136.424 96.0542 139.236 89.1052 137.808 88.8124Z" fill="url(#paint1_linear_102_39)" fill-opacity="0.5"/>
<path d="M192.289 108.156C197.235 103.244 197.235 103.244 202.844 97.3491L226.716 72.39C230.441 68.7217 233.85 64.8066 236.914 60.6782H259.496C258.85 66.0958 258.556 71.5422 258.614 76.9901V108.924H261.805C265.451 108.889 269.09 108.626 272.695 108.137V126.017C269.119 125.619 265.518 125.421 261.914 125.425H258.614V130.337C258.508 134.38 258.803 138.423 259.496 142.42H236.834C237.455 138.369 237.75 134.283 237.715 130.194V125.379H206.588C199.435 125.379 196.354 125.477 192.289 125.776V108.156ZM237.824 97.746C237.824 93.3215 238.043 87.9211 238.48 83.6008C236.295 86.3465 234.634 88.3115 231.662 91.6559L215.636 109.145H237.854L237.824 97.746Z" fill="#E01A76"/>
<path d="M192.289 108.156C197.235 103.244 197.235 103.244 202.844 97.3491L226.716 72.39C230.441 68.7217 233.85 64.8066 236.914 60.6782H259.496C258.85 66.0958 258.556 71.5422 258.614 76.9901V108.924H261.805C265.451 108.889 269.09 108.626 272.695 108.137V126.017C269.119 125.619 265.518 125.421 261.914 125.425H258.614V130.337C258.508 134.38 258.803 138.423 259.496 142.42H236.834C237.455 138.369 237.75 134.283 237.715 130.194V125.379H206.588C199.435 125.379 196.354 125.477 192.289 125.776V108.156ZM237.824 97.746C237.824 93.3215 238.043 87.9211 238.48 83.6008C236.295 86.3465 234.634 88.3115 231.662 91.6559L215.636 109.145H237.854L237.824 97.746Z" fill="url(#paint2_linear_102_39)" fill-opacity="0.5"/>
<path d="M121.112 134.71C117.605 131.621 114.873 127.902 113.099 123.798C110.201 116.581 108.749 108.965 108.809 101.298C108.809 90.9856 111.562 80.2758 115.743 74.0881C122.452 64.0615 133.889 58.5635 147.752 58.5635C158.423 58.5635 167.769 61.8167 174.478 67.6726C177.986 70.7583 180.717 74.4757 182.491 78.5776C185.396 85.8264 186.846 93.476 186.775 101.175C186.775 111.494 184.028 122.302 179.847 128.502C173.247 138.34 161.701 143.858 147.73 143.858C136.949 143.858 127.821 140.696 121.112 134.71ZM131.31 100.518C131.31 118.085 136.919 127.142 147.81 127.142C158.7 127.142 164.091 118.3 164.091 100.81C164.091 84.0106 158.372 75.1682 147.701 75.1682C137.393 75.1682 131.34 84.4985 131.34 100.518H131.31Z" fill="#E01A76"/>
<path d="M121.112 134.71C117.605 131.621 114.873 127.902 113.099 123.798C110.201 116.581 108.749 108.965 108.809 101.298C108.809 90.9856 111.562 80.2758 115.743 74.0881C122.452 64.0615 133.889 58.5635 147.752 58.5635C158.423 58.5635 167.769 61.8167 174.478 67.6726C177.986 70.7583 180.717 74.4757 182.491 78.5776C185.396 85.8264 186.846 93.476 186.775 101.175C186.775 111.494 184.028 122.302 179.847 128.502C173.247 138.34 161.701 143.858 147.73 143.858C136.949 143.858 127.821 140.696 121.112 134.71ZM131.31 100.518C131.31 118.085 136.919 127.142 147.81 127.142C158.7 127.142 164.091 118.3 164.091 100.81C164.091 84.0106 158.372 75.1682 147.701 75.1682C137.393 75.1682 131.34 84.4985 131.34 100.518H131.31Z" fill="url(#paint3_linear_102_39)" fill-opacity="0.5"/>
<path d="M24.9203 108.156C29.8737 103.244 29.8737 103.244 35.4828 97.3491L59.3541 72.39C63.0798 68.7217 66.489 64.8066 69.5524 60.6782H92.1344C91.4885 66.0958 91.1942 71.5422 91.253 76.9901V108.924H94.4436C98.1019 108.89 101.753 108.627 105.37 108.137V126.017C101.794 125.619 98.1932 125.421 94.5892 125.425H91.2894V130.337C91.1835 134.38 91.4784 138.423 92.1708 142.42H69.4723C70.094 138.369 70.3886 134.283 70.3537 130.194V125.379H39.2198C32.0737 125.379 29.0215 125.477 24.9203 125.776V108.156ZM70.463 97.746C70.463 93.3215 70.6815 87.9211 71.1186 83.6008C68.9332 86.3465 67.2724 88.3115 64.3003 91.6559L48.2744 109.145H70.463V97.746Z" fill="#E01A76"/>
<path d="M123.582 135.074C120.074 131.988 117.343 128.271 115.569 124.169C112.663 116.954 111.203 109.337 111.256 101.67C111.256 91.3567 114.01 80.6469 118.191 74.4527C124.9 64.4326 136.337 58.9346 150.199 58.9346C160.864 58.9346 170.217 62.1878 176.926 68.0437C180.435 71.1279 183.167 74.8457 184.939 78.9487C187.86 86.2012 189.32 93.8582 189.251 101.565C189.251 111.878 186.505 122.692 182.324 128.893C175.724 138.718 164.171 144.216 150.206 144.216C139.425 144.209 130.298 141.067 123.582 135.074ZM133.838 100.915C133.838 118.482 139.447 127.54 150.337 127.54C161.119 127.54 166.618 118.697 166.618 101.214C166.618 84.4077 160.893 75.5653 150.228 75.5653C139.862 75.5393 133.838 84.8696 133.838 100.915Z" fill="#E01A76"/>
<path d="M168.148 66.7229C168.968 67.2564 169.592 67.9944 169.944 68.8442C170.295 69.6939 170.357 70.6175 170.122 71.4987C171.496 71.6159 172.831 71.9753 174.049 72.556C175.267 73.1368 176.344 73.9274 177.217 74.8821C178.783 76.7274 179.73 78.9318 179.949 81.239C180.159 83.5326 180.103 85.8396 179.781 88.1229C179.745 88.912 179.563 89.6903 179.242 90.4262C178.866 91.0646 178.335 91.6204 177.689 92.0535C177.043 92.4867 176.297 92.7865 175.505 92.9312C173.923 93.2134 172.303 93.2814 170.698 93.1329L166.873 92.9508C166.747 92.9533 166.622 92.9288 166.509 92.8792C166.433 92.821 166.371 92.7494 166.327 92.6687C166.283 92.5881 166.258 92.5003 166.254 92.4107C165.992 91.0118 165.591 90.4002 165.307 89.0013C164.597 86.0478 163.208 83.2583 161.228 80.8096C160.877 80.4435 160.627 80.0089 160.499 79.5408C160.455 78.8937 160.617 78.2486 160.966 77.6799C161.483 76.5611 161.912 75.4109 162.248 74.238C162.556 72.8343 162.958 71.4482 163.45 70.0868C163.95 68.7108 164.983 67.5391 166.363 66.7815" fill="url(#paint4_linear_102_39)" fill-opacity="0.5"/>
<path d="M166.363 107.59C166.363 107.59 180.364 108.697 186.76 101.084C189.31 98.0649 183.628 83.8416 183.628 83.8416L177.166 94.1739L166.968 96.243L166.363 107.59Z" fill="url(#paint5_linear_102_39)" fill-opacity="0.5"/>
<path d="M194.97 108.156C199.916 103.244 199.916 103.244 205.525 97.3491L229.396 72.39C234.677 66.9896 236.768 64.5301 239.594 60.6782H262.176C261.537 66.1026 261.25 71.5556 261.317 77.0096V108.944H264.507C268.154 108.908 271.793 108.645 275.398 108.156V126.036C271.821 125.639 268.221 125.441 264.617 125.444H261.317V130.357C261.211 134.4 261.506 138.443 262.198 142.439H239.514C240.137 138.382 240.432 134.29 240.396 130.194V125.379H209.269C202.116 125.379 199.034 125.477 194.97 125.776V108.156ZM240.505 97.746C240.505 93.3215 240.724 87.9211 241.168 83.6008C238.983 86.3465 237.314 88.3115 234.35 91.6559L218.287 109.145H240.505V97.746Z" fill="#E01A76"/>
<path d="M133.51 85.338C133.133 85.461 132.768 85.6111 132.418 85.787C132.089 85.9355 131.801 86.1465 131.573 86.4051C131.461 86.5362 131.39 86.6905 131.364 86.8534C131.339 87.0162 131.36 87.1822 131.427 87.3355C131.575 87.5392 131.788 87.6985 132.039 87.7924C132.29 87.8864 132.566 87.9109 132.833 87.8626C133.729 87.7845 134.559 87.3876 135.455 87.2509C136.351 87.1143 137.196 86.5613 136.563 85.7089C135.929 84.8565 134.406 85.0387 133.51 85.338Z" fill="#F7AF87"/>
<path d="M136.366 87.251C135.055 86.9452 133.685 87.4592 132.505 88.0513C132.227 88.1724 131.979 88.3429 131.777 88.5523C131.655 88.6387 131.568 88.7575 131.527 88.8914C131.487 89.0252 131.495 89.1672 131.551 89.2965C131.607 89.4258 131.708 89.5357 131.839 89.6102C131.97 89.6846 132.124 89.7198 132.279 89.7105C132.547 89.7345 132.818 89.7191 133.081 89.6649L134.894 89.3852C135.316 89.3411 135.727 89.2356 136.111 89.0728C136.934 88.6434 137.633 87.5308 136.366 87.251Z" fill="#F7AF87"/>
<path d="M133.838 89.4047C133.462 89.5326 133.097 89.6848 132.745 89.8601C132.413 90.0181 132.124 90.2404 131.9 90.5108C131.791 90.6414 131.72 90.7946 131.695 90.9561C131.67 91.1176 131.69 91.2822 131.755 91.4347C131.903 91.6384 132.116 91.7977 132.367 91.8916C132.618 91.9856 132.894 92.0101 133.161 91.9618C134.057 91.8837 134.887 91.4868 135.783 91.3502C136.679 91.2135 137.524 90.667 136.89 89.8081C136.257 88.9492 134.72 89.1054 133.838 89.4047Z" fill="#F7AF87"/>
<path d="M136.665 91.0443C135.317 90.9467 134.071 91.6949 133.022 92.4367C132.767 92.6033 132.552 92.8134 132.389 93.0548C132.288 93.1595 132.228 93.29 132.216 93.4273C132.205 93.5646 132.242 93.7017 132.323 93.8189C132.404 93.936 132.524 94.0272 132.667 94.0794C132.81 94.1315 132.967 94.1418 133.117 94.1088C133.383 94.0911 133.644 94.034 133.889 93.9397L135.616 93.3736C136.025 93.2639 136.411 93.0946 136.759 92.8726C137.48 92.3391 137.968 91.1549 136.665 91.0443Z" fill="#F7AF87"/>
<path d="M175.272 72.6763C173.149 71.7722 170.813 71.337 168.461 71.4075C168.064 71.3904 167.667 71.448 167.296 71.5767C167.114 71.6475 166.96 71.7639 166.851 71.9118C166.742 72.0597 166.684 72.2326 166.684 72.4095C166.755 72.7182 166.952 72.9921 167.238 73.1773C168.098 73.876 169.064 74.463 170.108 74.9211C170.423 75.0321 170.71 75.198 170.953 75.4091C171.071 75.5158 171.148 75.6544 171.17 75.8036C171.193 75.9528 171.16 76.1044 171.076 76.2354C170.836 76.5347 170.282 76.5477 170.1 76.886C169.86 77.309 170.465 77.7254 170.989 77.8035C171.547 77.8887 172.119 77.8416 172.65 77.6668C173.021 77.4961 173.428 77.3943 173.845 77.3675C174.256 77.4464 174.644 77.604 174.981 77.8295C176.132 78.4151 179.709 78.4346 179.483 76.6518C179.272 74.9991 176.744 73.3595 175.272 72.6763Z" fill="#F7AF87"/>
<path d="M157.673 87.0232C157.673 87.0232 173.779 92.9506 175.622 92.6448C177.465 92.339 174.486 78.1417 174.486 78.1417L179.978 75.897C179.978 75.897 192.362 97.824 182.222 101.012C175.951 102.886 169.157 102.822 162.932 100.83L157.673 87.0232Z" fill="#E01A76"/>
<path d="M166.24 78.7923C166.183 80.0661 165.846 81.3174 165.249 82.4751C164.664 83.3377 163.863 84.0671 162.908 84.6057C161.954 85.1443 160.872 85.4774 159.749 85.5787C158.931 85.6258 158.117 85.728 157.316 85.8845C156.945 85.9524 156.598 86.1015 156.307 86.3184C156.016 86.5352 155.789 86.8131 155.648 87.1272C155 88.5326 154.329 89.9576 152.239 89.4826C152.042 89.4437 151.852 89.3848 151.671 89.3069C151.013 89.0313 150.422 88.6447 149.93 88.1683C149.316 87.6138 148.783 86.993 148.342 86.3204C148.113 86.0092 147.96 85.6592 147.89 85.2924C147.847 84.8418 147.906 84.3881 148.065 83.9585C148.793 81.3559 148.91 78.4085 149.944 75.8709C151.003 73.2986 153.026 71.133 155.67 69.7417C158.285 68.3819 161.92 68.3624 164.142 70.2167C165.357 71.3037 166.127 72.7249 166.327 74.2508C166.502 75.7623 166.473 77.2871 166.24 78.7923Z" fill="#F7AF87"/>
<path d="M148.524 75.539C148.662 74.3158 148.655 73.0731 148.924 71.8693C149.128 70.6396 149.818 69.5155 150.869 68.7007C151.133 68.5134 151.428 68.3641 151.743 68.2582C152.028 68.1671 152.326 68.1151 152.618 68.0435C153.474 67.7708 154.29 67.4082 155.051 66.9634C156.204 66.3463 157.464 65.9064 158.78 65.6621C159.67 65.5406 160.569 65.484 161.468 65.4929C163.119 65.4669 164.778 65.4539 166.444 65.4539C166.834 65.4277 167.227 65.4857 167.587 65.6231C167.983 65.8414 168.272 66.1854 168.396 66.586C168.713 67.4838 168.713 68.447 168.396 69.3448C168.073 70.233 167.646 71.088 167.121 71.8954C166.865 72.4042 166.504 72.8655 166.057 73.2552C165.671 72.6566 165.329 72.0385 164.979 71.4139C163.865 72.4484 162.109 72.7152 160.507 72.6046C158.904 72.494 157.331 72.1231 155.728 72.1036C155.347 72.0675 154.962 72.0989 154.594 72.1961C154.227 72.2932 153.884 72.4541 153.586 72.6697C153.227 73.0433 152.977 73.4903 152.858 73.971C152.521 75.042 152.246 76.1278 152.035 77.2242C151.845 76.9054 151.081 76.0726 150.68 76.0856C150.564 76.0956 150.452 76.1267 150.351 76.1771C150.249 76.2275 150.16 76.296 150.09 76.3784C149.427 77.029 149.755 79.4169 150.367 80.1066C150.489 80.2111 150.582 80.3406 150.636 80.484C150.649 80.5799 150.639 80.677 150.609 80.7697C150.579 80.8624 150.529 80.9489 150.461 81.0241C150.293 81.2015 150.079 81.3403 149.839 81.4286C149.598 81.5169 149.337 81.5522 149.077 81.5316C148.436 81.5316 148.312 80.4385 148.247 80.0351C147.977 78.5321 148.363 77.016 148.524 75.539Z" fill="#606060"/>
<path d="M151.081 78.285C150.99 78.1168 150.95 77.9309 150.964 77.7449C150.979 77.5585 150.957 77.3713 150.898 77.1919C150.832 77.0273 150.7 76.8906 150.527 76.808C150.477 76.7951 150.424 76.7951 150.374 76.808C150.332 76.824 150.294 76.8489 150.265 76.8806C150.236 76.9124 150.216 76.9499 150.206 76.9902C149.952 77.7033 149.98 78.4732 150.287 79.1698C150.327 79.2948 150.398 79.4099 150.495 79.5068C150.593 79.6037 150.713 79.6798 150.847 79.7294C150.966 79.7506 151.089 79.7451 151.205 79.7133C151.32 79.6815 151.426 79.6244 151.51 79.5472C151.625 79.4389 151.703 79.3041 151.737 79.1581C151.77 79.0122 151.757 78.8607 151.7 78.7209C151.576 78.4606 151.234 78.5192 151.081 78.285Z" fill="url(#paint6_linear_102_39)"/>
<path d="M157.316 85.8716C156.945 85.9395 156.598 86.0886 156.307 86.3055C156.016 86.5223 155.789 86.8002 155.648 87.1143C155 88.5197 154.329 89.9447 152.239 89.4697C152.042 89.4308 151.852 89.3718 151.671 89.294C151.494 89.1589 151.35 88.9928 151.248 88.806C151.155 88.5864 151.112 88.3523 151.122 88.1175C151.132 87.8828 151.194 87.6522 151.306 87.4396C151.559 86.8928 151.984 86.4234 152.53 86.0884C153.075 85.7534 153.718 85.5673 154.38 85.5527C154.937 85.5757 155.49 85.641 156.034 85.7479C156.369 85.787 156.762 85.7479 157.068 85.7805C157.157 85.7947 157.242 85.8258 157.316 85.8716Z" fill="url(#paint7_linear_102_39)"/>
</g>
<defs>
<linearGradient id="paint0_linear_102_39" x1="-47.5459" y1="41.8092" x2="177.722" y2="182.934" gradientUnits="userSpaceOnUse">
<stop stop-opacity="0"/>
<stop offset="0.99"/>
</linearGradient>
<linearGradient id="paint1_linear_102_39" x1="4768.97" y1="7077.21" x2="2033.13" y2="7924.8" gradientUnits="userSpaceOnUse">
<stop stop-opacity="0"/>
<stop offset="0.99"/>
</linearGradient>
<linearGradient id="paint2_linear_102_39" x1="34393.9" y1="20431.5" x2="10916.7" y2="744.141" gradientUnits="userSpaceOnUse">
<stop stop-opacity="0"/>
<stop offset="0.99"/>
</linearGradient>
<linearGradient id="paint3_linear_102_39" x1="23179.4" y1="14320.6" x2="-1313.75" y2="13412.3" gradientUnits="userSpaceOnUse">
<stop stop-opacity="0"/>
<stop offset="0.99"/>
</linearGradient>
<linearGradient id="paint4_linear_102_39" x1="5236.67" y1="2857.87" x2="2906.11" y2="4702.3" gradientUnits="userSpaceOnUse">
<stop stop-opacity="0"/>
<stop offset="0.99"/>
</linearGradient>
<linearGradient id="paint5_linear_102_39" x1="5354.85" y1="4376.59" x2="5003.25" y2="2909.67" gradientUnits="userSpaceOnUse">
<stop stop-opacity="0"/>
<stop offset="0.99"/>
</linearGradient>
<linearGradient id="paint6_linear_102_39" x1="505.662" y1="454.656" x2="510.459" y2="453.681" gradientUnits="userSpaceOnUse">
<stop stop-opacity="0"/>
<stop offset="0.99"/>
</linearGradient>
<linearGradient id="paint7_linear_102_39" x1="1435.64" y1="640.478" x2="1496.47" y2="717.501" gradientUnits="userSpaceOnUse">
<stop stop-opacity="0"/>
<stop offset="0.99"/>
</linearGradient>
<clipPath id="clip0_102_39">
<rect width="306" height="206" fill="white"/>
</clipPath>
</defs>
</svg>
